<?xml version="1.0" encoding="UTF-8"?>
<svg width="20px" height="15px" viewBox="0 0 20 15" version="1.1" xmlns="http://www.w3.org/2000/svg" xmlns:xlink="http://www.w3.org/1999/xlink">
    <!-- Generator: Sketch 54.1 (76490) - https://sketchapp.com -->
    <title>Group</title>
    <desc>Created with Sketch.</desc>
    <g id="Symbols" stroke="none" stroke-width="1" fill="none" fill-rule="evenodd">
        <g id="#-FOOTER-3" transform="translate(-709.000000, -223.000000)" fill-rule="nonzero">
            <g id="Group-7">
                <g id="Group-3" transform="translate(621.000000, 222.000000)">
                    <g id="social-icons" transform="translate(34.000000, 0.000000)">
                        <g id="youtube" transform="translate(54.500000, 1.000000)">
                            <g id="Group" transform="translate(0.156250, 0.312500)">
                                <g id="#ff3d00ff" fill="#FF3D00">
                                    <path d="M5.160625,0.203645833 C9.03229169,-0.1365625 12.9446875,-0.0359375 16.7876042,0.536666667 C17.7219792,0.66125 18.54375,1.39677083 18.745,2.3215625 C19.2984375,5.06239583 19.3128125,7.88947919 18.9654167,10.6590625 C18.8480208,11.4592708 18.83125,12.3529167 18.2754167,12.9997917 C17.8561458,13.5220833 17.2092708,13.8095833 16.5528125,13.8790625 C11.9432292,14.5307292 7.245,14.5211458 2.63541667,13.8814583 C1.495,13.8191667 0.4815625,12.9063542 0.356979167,11.7635417 C-0.115,8.75677081 -0.117395833,5.6709375 0.347395833,2.66177083 C0.4528125,1.67708333 1.19791667,0.77625 2.18260417,0.577395833 C3.16489583,0.3809375 4.16635417,0.306666667 5.160625,0.203645833 L5.160625,0.203645833 Z M7.66666669,3.82854167 L7.66666669,10.5416667 C9.588125,9.42760419 11.5071875,8.30875 13.4238542,7.18510417 C11.5047917,6.06385417 9.588125,4.94260417 7.66666669,3.82854167 Z" id="Shape"></path>
                                </g>
                                <g id="#ffffffff" transform="translate(7.666667, 3.593750)" fill="#FFFFFF">
                                    <path d="M0,0.234791667 C1.92145833,1.34885417 3.838125,2.47010417 5.7571875,3.59135417 C3.84052083,4.715 1.92145833,5.83385417 0,6.94791667 L0,0.234791667 Z" id="Shape"></path>
                                </g>
                            </g>
                        </g>
                    </g>
                </g>
            </g>
        </g>
    </g>
</svg>